<svg width="268" height="52" viewBox="0 0 268 52" fill="none" xmlns="http://www.w3.org/2000/svg">
<g clip-path="url(#clip0_74_4972)">
<mask id="mask0_74_4972" style="mask-type:luminance" maskUnits="userSpaceOnUse" x="0" y="0" width="268" height="52">
<path d="M268 0H0V52H268V0Z" fill="white"/>
</mask>
<g mask="url(#mask0_74_4972)">
<path d="M31.6822 3.56863V0H0V40.7843C0.415504 45.6784 5.02067 47.9216 7.27132 48.4314C9.17571 48.4314 13.6078 48.5333 16.1008 48.9412C18.5938 49.349 20.602 51.1504 21.2946 52C23.3721 49.5529 26.6615 48.6013 28.0465 48.4314H36.3566C41.7581 47.6157 43.1085 43.3333 43.1085 41.2941V11.7255H39.4729V40.7843C39.4729 43.6392 37.0491 44.6928 35.8372 44.8627C33.9329 44.6928 29.3969 44.4549 26.4884 44.8627C23.5798 45.2706 21.814 46.732 21.2946 47.4118C20.0481 45.3726 17.3127 44.8627 16.1008 44.8627C14.3695 45.0327 10.1798 45.1686 7.27132 44.3529C4.36279 43.5373 3.63566 41.634 3.63566 40.7843V3.56863H31.6822Z" fill="#FF4253"/>
<path d="M43.1084 0H33.7596V3.56863H36.8758L21.8138 15.8039L11.9456 8.15686L6.23242 12.2353V17.3333L11.9456 12.7451L21.8138 20.3922L39.4727 6.62745V9.68627H43.1084V0Z" fill="#FF4253"/>
<path d="M13.5038 20.3921H9.86816V37.7254H13.5038V20.3921Z" fill="#FF4253"/>
<path d="M23.8914 24.4707H19.7363V41.804H23.8914V24.4707Z" fill="#FF4253"/>
<path d="M33.7595 20.3921H29.6045V38.2352H33.7595V20.3921Z" fill="#FF4253"/>
<path d="M65.2611 9.49409V15.2941H63.917V9.49409H65.2611ZM68.7557 9.49409L66.4632 13.009H64.9923L64.8249 11.8241H65.8191L67.2037 9.49409H68.7557ZM67.2849 15.2941L65.6973 12.775L66.6863 11.9783L68.9333 15.2941H67.2849ZM74.7459 12.2671V12.5261C74.7459 12.9675 74.68 13.3641 74.5481 13.7159C74.4196 14.0644 74.2353 14.3631 73.9952 14.6121C73.7552 14.8576 73.4694 15.0469 73.1381 15.1796C72.8067 15.309 72.4398 15.3737 72.0374 15.3737C71.635 15.3737 71.2681 15.309 70.9367 15.1796C70.6054 15.0469 70.3179 14.8576 70.0746 14.6121C69.8311 14.3631 69.6434 14.0644 69.5115 13.7159C69.3796 13.3641 69.3137 12.9675 69.3137 12.5261V12.2671C69.3137 11.8257 69.3796 11.4307 69.5115 11.0822C69.6434 10.7304 69.8294 10.4301 70.0695 10.1811C70.3095 9.9322 70.5953 9.74302 70.9266 9.61358C71.258 9.48081 71.6249 9.41444 72.0272 9.41444C72.4296 9.41444 72.7965 9.48081 73.1279 9.61358C73.4592 9.74302 73.745 9.9322 73.9851 10.1811C74.2286 10.4301 74.4162 10.7304 74.5481 11.0822C74.68 11.4307 74.7459 11.8257 74.7459 12.2671ZM73.4018 12.5261V12.2572C73.4018 11.9685 73.3697 11.7128 73.3054 11.4905C73.2445 11.2648 73.155 11.0756 73.0366 10.9229C72.9216 10.7703 72.7779 10.6541 72.6055 10.5744C72.4364 10.4914 72.2437 10.4499 72.0272 10.4499C71.8108 10.4499 71.6164 10.4914 71.4439 10.5744C71.2749 10.6541 71.1312 10.7703 71.0129 10.9229C70.8979 11.0756 70.81 11.2648 70.7491 11.4905C70.6882 11.7128 70.6578 11.9685 70.6578 12.2572V12.5261C70.6578 12.8148 70.6882 13.072 70.7491 13.2977C70.81 13.5201 70.8995 13.7092 71.018 13.8652C71.1397 14.0212 71.285 14.1407 71.4541 14.2237C71.6266 14.3034 71.821 14.3432 72.0374 14.3432C72.2538 14.3432 72.4466 14.3034 72.6156 14.2237C72.7847 14.1407 72.9267 14.0212 73.0417 13.8652C73.16 13.7092 73.2496 13.5201 73.3105 13.2977C73.3714 13.072 73.4018 12.8148 73.4018 12.5261ZM76.2929 9.49409H77.424L79.0166 13.5915L80.6042 9.49409H81.7352L79.468 15.2941H78.5652L76.2929 9.49409ZM75.6639 9.49409H76.8001L77.0081 13.8702V15.2941H75.6639V9.49409ZM81.2381 9.49409H82.3794V15.2941H81.0301V13.8702L81.2381 9.49409ZM87.7507 9.49409V10.5296H84.4031V9.49409H87.7507ZM84.8292 9.49409V15.2941H83.485V9.49409H84.8292ZM88.6941 9.49409V15.2941H87.3449V9.49409H88.6941ZM93.9284 9.49409V10.5296H91.0222V9.49409H93.9284ZM94.948 9.49409V15.2941H93.5987V9.49409H94.948ZM90.657 9.49409H92.0112L91.8996 12.0531C91.8827 12.5145 91.8455 12.9227 91.7881 13.2778C91.7305 13.6296 91.6477 13.9333 91.5395 14.1889C91.4347 14.4445 91.2978 14.6535 91.1287 14.8161C90.963 14.9788 90.7601 15.1 90.52 15.1796C90.28 15.256 89.9959 15.2941 89.668 15.2941H89.4296L89.4194 14.2237L89.602 14.1988C89.744 14.1822 89.8657 14.1491 89.9672 14.0992C90.0686 14.0461 90.1548 13.9681 90.2259 13.8652C90.2968 13.7591 90.3544 13.6213 90.3983 13.4521C90.4422 13.2827 90.4778 13.072 90.5048 12.8197C90.5319 12.5642 90.5521 12.2605 90.5656 11.9087L90.657 9.49409ZM100.334 14.2586V15.2941H96.9463V14.2586H100.334ZM97.3978 9.49409V15.2941H96.0536V9.49409H97.3978ZM99.8983 11.7792V12.8148H96.9463V11.7792H99.8983ZM100.334 9.49409V10.5346H96.9463V9.49409H100.334ZM102.419 9.49409V15.2941H101.075V9.49409H102.419ZM105.914 9.49409L103.621 13.009H102.15L101.983 11.8241H102.977L104.362 9.49409H105.914ZM104.443 15.2941L102.855 12.775L103.844 11.9783L106.091 15.2941H104.443ZM110.332 13.3376H111.681C111.65 13.7425 111.53 14.0976 111.321 14.403C111.111 14.7083 110.819 14.9472 110.443 15.1199C110.071 15.2891 109.626 15.3737 109.109 15.3737C108.697 15.3737 108.328 15.309 108.004 15.1796C107.679 15.0501 107.401 14.8643 107.172 14.622C106.945 14.3764 106.771 14.081 106.649 13.7358C106.531 13.3906 106.472 13.0007 106.472 12.5658V12.2273C106.472 11.7926 106.534 11.4026 106.66 11.0573C106.784 10.7088 106.962 10.4134 107.192 10.1712C107.422 9.92557 107.697 9.73804 108.018 9.6086C108.343 9.47584 108.707 9.40946 109.109 9.40946C109.643 9.40946 110.093 9.49907 110.458 9.6783C110.827 9.85753 111.113 10.1048 111.315 10.4201C111.522 10.7321 111.645 11.0872 111.686 11.4855H110.342C110.324 11.2863 110.275 11.1088 110.189 10.9528C110.105 10.7968 109.974 10.6741 109.799 10.5844C109.626 10.4948 109.397 10.4499 109.109 10.4499C108.896 10.4499 108.708 10.4882 108.546 10.5645C108.384 10.6375 108.249 10.7487 108.14 10.8981C108.032 11.0441 107.951 11.2283 107.897 11.4507C107.843 11.6697 107.816 11.927 107.816 12.2223V12.5658C107.816 12.858 107.84 13.1152 107.886 13.3376C107.937 13.5566 108.015 13.7408 108.12 13.8901C108.225 14.0395 108.358 14.1524 108.521 14.2287C108.686 14.305 108.883 14.3432 109.109 14.3432C109.376 14.3432 109.596 14.3067 109.769 14.2337C109.941 14.1606 110.073 14.0495 110.164 13.9001C110.259 13.7475 110.315 13.56 110.332 13.3376ZM119.046 12.9093H116.87V11.8688H119.046V12.9093ZM116.185 13.3376C116.202 13.56 116.256 13.7475 116.347 13.9001C116.439 14.0495 116.572 14.1606 116.748 14.2337C116.924 14.3067 117.145 14.3432 117.412 14.3432C117.638 14.3432 117.834 14.305 117.996 14.2287C118.158 14.1524 118.292 14.0395 118.397 13.8901C118.5 13.7408 118.577 13.5566 118.624 13.3376C118.675 13.1152 118.7 12.858 118.7 12.5658V12.2223C118.7 11.927 118.672 11.6697 118.614 11.4507C118.56 11.2283 118.479 11.0441 118.371 10.8981C118.263 10.7487 118.128 10.6375 117.964 10.5645C117.806 10.4882 117.62 10.4499 117.407 10.4499C117.123 10.4499 116.894 10.4948 116.717 10.5844C116.541 10.6741 116.412 10.7968 116.326 10.9528C116.242 11.1088 116.193 11.2863 116.18 11.4855H114.831C114.874 11.0872 114.996 10.7321 115.195 10.4201C115.399 10.1048 115.684 9.85753 116.053 9.6783C116.425 9.49907 116.876 9.40946 117.407 9.40946C117.806 9.40946 118.168 9.47584 118.492 9.6086C118.817 9.73804 119.095 9.92557 119.324 10.1712C119.554 10.4134 119.73 10.7088 119.852 11.0573C119.977 11.4026 120.04 11.7926 120.04 12.2273V12.5658C120.04 13.0007 119.979 13.3906 119.857 13.7358C119.739 14.081 119.566 14.3764 119.34 14.622C119.116 14.8643 118.841 15.0501 118.513 15.1796C118.188 15.309 117.821 15.3737 117.412 15.3737C116.895 15.3737 116.449 15.2891 116.073 15.1199C115.701 14.9472 115.41 14.7083 115.2 14.403C114.992 14.0976 114.871 13.7425 114.841 13.3376H116.185ZM122.301 9.49409V15.2941H120.957V9.49409H122.301ZM125.797 9.49409L123.504 13.009H122.032L121.865 11.8241H122.859L124.244 9.49409H125.797ZM124.326 15.2941L122.738 12.775L123.726 11.9783L125.973 15.2941H124.326ZM131.786 12.2671V12.5261C131.786 12.9675 131.721 13.3641 131.589 13.7159C131.46 14.0644 131.276 14.3631 131.035 14.6121C130.795 14.8576 130.51 15.0469 130.178 15.1796C129.847 15.309 129.48 15.3737 129.078 15.3737C128.675 15.3737 128.308 15.309 127.977 15.1796C127.646 15.0469 127.358 14.8576 127.115 14.6121C126.872 14.3631 126.684 14.0644 126.552 13.7159C126.42 13.3641 126.355 12.9675 126.355 12.5261V12.2671C126.355 11.8257 126.42 11.4307 126.552 11.0822C126.684 10.7304 126.87 10.4301 127.11 10.1811C127.35 9.9322 127.635 9.74302 127.967 9.61358C128.298 9.48081 128.666 9.41444 129.068 9.41444C129.47 9.41444 129.838 9.48081 130.169 9.61358C130.5 9.74302 130.786 9.9322 131.026 10.1811C131.269 10.4301 131.457 10.7304 131.589 11.0822C131.721 11.4307 131.786 11.8257 131.786 12.2671ZM130.442 12.5261V12.2572C130.442 11.9685 130.41 11.7128 130.345 11.4905C130.285 11.2648 130.196 11.0756 130.077 10.9229C129.962 10.7703 129.819 10.6541 129.646 10.5744C129.477 10.4914 129.284 10.4499 129.068 10.4499C128.852 10.4499 128.656 10.4914 128.484 10.5744C128.316 10.6541 128.171 10.7703 128.053 10.9229C127.939 11.0756 127.85 11.2648 127.789 11.4905C127.729 11.7128 127.699 11.9685 127.699 12.2572V12.5261C127.699 12.8148 127.729 13.072 127.789 13.2977C127.85 13.5201 127.94 13.7092 128.058 13.8652C128.18 14.0212 128.325 14.1407 128.494 14.2237C128.667 14.3034 128.861 14.3432 129.078 14.3432C129.294 14.3432 129.487 14.3034 129.656 14.2237C129.825 14.1407 129.967 14.0212 130.083 13.8652C130.2 13.7092 130.29 13.5201 130.351 13.2977C130.412 13.072 130.442 12.8148 130.442 12.5261ZM136.955 11.9236V12.9641H133.632V11.9236H136.955ZM134.049 9.49409V15.2941H132.704V9.49409H134.049ZM137.898 9.49409V15.2941H136.559V9.49409H137.898ZM144.243 12.2671V12.5261C144.243 12.9675 144.178 13.3641 144.046 13.7159C143.917 14.0644 143.733 14.3631 143.493 14.6121C143.253 14.8576 142.966 15.0469 142.635 15.1796C142.304 15.309 141.937 15.3737 141.535 15.3737C141.133 15.3737 140.765 15.309 140.434 15.1796C140.103 15.0469 139.816 14.8576 139.572 14.6121C139.329 14.3631 139.141 14.0644 139.009 13.7159C138.877 13.3641 138.811 12.9675 138.811 12.5261V12.2671C138.811 11.8257 138.877 11.4307 139.009 11.0822C139.141 10.7304 139.327 10.4301 139.567 10.1811C139.806 9.9322 140.093 9.74302 140.425 9.61358C140.756 9.48081 141.123 9.41444 141.525 9.41444C141.928 9.41444 142.294 9.48081 142.626 9.61358C142.957 9.74302 143.243 9.9322 143.483 10.1811C143.726 10.4301 143.914 10.7304 144.046 11.0822C144.178 11.4307 144.243 11.8257 144.243 12.2671ZM142.899 12.5261V12.2572C142.899 11.9685 142.867 11.7128 142.803 11.4905C142.742 11.2648 142.653 11.0756 142.534 10.9229C142.419 10.7703 142.276 10.6541 142.103 10.5744C141.934 10.4914 141.741 10.4499 141.525 10.4499C141.309 10.4499 141.114 10.4914 140.942 10.5744C140.773 10.6541 140.629 10.7703 140.511 10.9229C140.395 11.0756 140.307 11.2648 140.247 11.4905C140.186 11.7128 140.156 11.9685 140.156 12.2572V12.5261C140.156 12.8148 140.186 13.072 140.247 13.2977C140.307 13.5201 140.398 13.7092 140.515 13.8652C140.638 14.0212 140.783 14.1407 140.951 14.2237C141.124 14.3034 141.319 14.3432 141.535 14.3432C141.751 14.3432 141.944 14.3034 142.114 14.2237C142.282 14.1407 142.424 14.0212 142.539 13.8652C142.658 13.7092 142.747 13.5201 142.807 13.2977C142.869 13.072 142.899 12.8148 142.899 12.5261ZM145.791 9.49409H146.921L148.514 13.5915L150.102 9.49409H151.233L148.965 15.2941H148.063L145.791 9.49409ZM145.161 9.49409H146.298L146.505 13.8702V15.2941H145.161V9.49409ZM150.735 9.49409H151.877V15.2941H150.528V13.8702L150.735 9.49409ZM153.327 14.8211L156.853 9.49409L157.836 9.96705L154.326 15.2941L153.327 14.8211ZM156.853 9.49409H158.202V15.2941H156.853V9.49409ZM152.982 9.49409H154.326V15.2941H152.982V9.49409ZM164.182 9.49409V15.2941H162.833V9.49409H164.182ZM163.34 11.9933V13.019C163.211 13.0786 163.049 13.1351 162.852 13.1882C162.66 13.238 162.456 13.2795 162.24 13.3126C162.026 13.3458 161.826 13.3625 161.64 13.3625C161.123 13.3625 160.673 13.2927 160.292 13.1533C159.913 13.014 159.619 12.7866 159.409 12.4712C159.202 12.156 159.099 11.7377 159.099 11.2167V9.49409H160.449V11.2117C160.449 11.4905 160.492 11.7112 160.581 11.8738C160.669 12.0332 160.8 12.1477 160.976 12.2173C161.155 12.2871 161.376 12.322 161.64 12.322C161.833 12.322 162.025 12.3086 162.214 12.2821C162.407 12.2556 162.598 12.2173 162.787 12.1676C162.976 12.1178 163.161 12.0597 163.34 11.9933ZM169.568 14.2586V15.2941H166.18V14.2586H169.568ZM166.631 9.49409V15.2941H165.287V9.49409H166.631ZM169.132 11.7792V12.8148H166.18V11.7792H169.132ZM169.568 9.49409V10.5346H166.18V9.49409H169.568ZM173.975 13.3376H175.325C175.295 13.7425 175.174 14.0976 174.965 14.403C174.756 14.7083 174.463 14.9472 174.088 15.1199C173.716 15.2891 173.271 15.3737 172.754 15.3737C172.34 15.3737 171.973 15.309 171.648 15.1796C171.324 15.0501 171.046 14.8643 170.816 14.622C170.589 14.3764 170.416 14.081 170.293 13.7358C170.176 13.3906 170.116 13.0007 170.116 12.5658V12.2273C170.116 11.7926 170.179 11.4026 170.303 11.0573C170.429 10.7088 170.607 10.4134 170.836 10.1712C171.066 9.92557 171.342 9.73804 171.663 9.6086C171.987 9.47584 172.351 9.40946 172.754 9.40946C173.288 9.40946 173.738 9.49907 174.102 9.6783C174.471 9.85753 174.757 10.1048 174.96 10.4201C175.166 10.7321 175.289 11.0872 175.33 11.4855H173.986C173.969 11.2863 173.918 11.1088 173.834 10.9528C173.749 10.7968 173.619 10.6741 173.444 10.5844C173.271 10.4948 173.041 10.4499 172.754 10.4499C172.541 10.4499 172.353 10.4882 172.191 10.5645C172.028 10.6375 171.893 10.7487 171.785 10.8981C171.677 11.0441 171.596 11.2283 171.542 11.4507C171.488 11.6697 171.46 11.927 171.46 12.2223V12.5658C171.46 12.858 171.483 13.1152 171.531 13.3376C171.582 13.5566 171.66 13.7408 171.764 13.8901C171.869 14.0395 172.003 14.1524 172.165 14.2287C172.331 14.305 172.527 14.3432 172.754 14.3432C173.021 14.3432 173.24 14.3067 173.412 14.2337C173.585 14.1606 173.717 14.0495 173.808 13.9001C173.903 13.7475 173.959 13.56 173.975 13.3376ZM177.506 9.49409V15.2941H176.162V9.49409H177.506ZM181.001 9.49409L178.708 13.009H177.237L177.07 11.8241H178.064L179.449 9.49409H181.001ZM179.53 15.2941L177.942 12.775L178.931 11.9783L181.178 15.2941H179.53ZM186.991 12.2671V12.5261C186.991 12.9675 186.925 13.3641 186.793 13.7159C186.665 14.0644 186.48 14.3631 186.24 14.6121C186 14.8576 185.714 15.0469 185.383 15.1796C185.052 15.309 184.685 15.3737 184.282 15.3737C183.88 15.3737 183.513 15.309 183.182 15.1796C182.851 15.0469 182.563 14.8576 182.32 14.6121C182.076 14.3631 181.889 14.0644 181.757 13.7159C181.625 13.3641 181.558 12.9675 181.558 12.5261V12.2671C181.558 11.8257 181.625 11.4307 181.757 11.0822C181.889 10.7304 182.075 10.4301 182.315 10.1811C182.555 9.9322 182.84 9.74302 183.172 9.61358C183.503 9.48081 183.87 9.41444 184.272 9.41444C184.675 9.41444 185.041 9.48081 185.373 9.61358C185.704 9.74302 185.99 9.9322 186.23 10.1811C186.474 10.4301 186.661 10.7304 186.793 11.0822C186.925 11.4307 186.991 11.8257 186.991 12.2671ZM185.647 12.5261V12.2572C185.647 11.9685 185.615 11.7128 185.55 11.4905C185.489 11.2648 185.4 11.0756 185.281 10.9229C185.166 10.7703 185.023 10.6541 184.85 10.5744C184.681 10.4914 184.489 10.4499 184.272 10.4499C184.056 10.4499 183.861 10.4914 183.689 10.5744C183.52 10.6541 183.376 10.7703 183.258 10.9229C183.143 11.0756 183.055 11.2648 182.994 11.4905C182.933 11.7128 182.903 11.9685 182.903 12.2572V12.5261C182.903 12.8148 182.933 13.072 182.994 13.2977C183.055 13.5201 183.145 13.7092 183.263 13.8652C183.385 14.0212 183.53 14.1407 183.699 14.2237C183.872 14.3034 184.066 14.3432 184.282 14.3432C184.499 14.3432 184.691 14.3034 184.861 14.2237C185.03 14.1407 185.171 14.0212 185.287 13.8652C185.405 13.7092 185.494 13.5201 185.556 13.2977C185.616 13.072 185.647 12.8148 185.647 12.5261ZM188.253 14.8211L191.779 9.49409L192.762 9.96705L189.252 15.2941L188.253 14.8211ZM191.779 9.49409H193.128V15.2941H191.779V9.49409ZM187.908 9.49409H189.252V15.2941H187.908V9.49409ZM191.237 7.59229H192.21C192.21 7.87109 192.14 8.11835 192.002 8.33409C191.863 8.54983 191.666 8.71909 191.409 8.84191C191.154 8.96138 190.854 9.02113 190.505 9.02113C189.982 9.02113 189.566 8.88837 189.258 8.62284C188.95 8.35732 188.796 8.0138 188.796 7.59229H189.77C189.77 7.7682 189.826 7.92585 189.938 8.06525C190.049 8.20465 190.238 8.27434 190.505 8.27434C190.773 8.27434 190.96 8.20465 191.068 8.06525C191.18 7.92585 191.237 7.7682 191.237 7.59229ZM201.081 9.49409V10.5296H197.733V9.49409H201.081ZM198.16 9.49409V15.2941H196.816V9.49409H198.16ZM202.024 9.49409V15.2941H200.676V9.49409H202.024ZM208.375 12.2671V12.5261C208.375 12.9675 208.309 13.3641 208.177 13.7159C208.048 14.0644 207.864 14.3631 207.624 14.6121C207.384 14.8576 207.098 15.0469 206.767 15.1796C206.436 15.309 206.069 15.3737 205.666 15.3737C205.264 15.3737 204.897 15.309 204.566 15.1796C204.235 15.0469 203.947 14.8576 203.704 14.6121C203.46 14.3631 203.273 14.0644 203.141 13.7159C203.009 13.3641 202.942 12.9675 202.942 12.5261V12.2671C202.942 11.8257 203.009 11.4307 203.141 11.0822C203.273 10.7304 203.459 10.4301 203.699 10.1811C203.938 9.9322 204.224 9.74302 204.556 9.61358C204.887 9.48081 205.254 9.41444 205.656 9.41444C206.059 9.41444 206.425 9.48081 206.757 9.61358C207.088 9.74302 207.374 9.9322 207.614 10.1811C207.858 10.4301 208.045 10.7304 208.177 11.0822C208.309 11.4307 208.375 11.8257 208.375 12.2671ZM207.031 12.5261V12.2572C207.031 11.9685 206.999 11.7128 206.934 11.4905C206.873 11.2648 206.784 11.0756 206.665 10.9229C206.55 10.7703 206.407 10.6541 206.234 10.5744C206.065 10.4914 205.873 10.4499 205.656 10.4499C205.439 10.4499 205.245 10.4914 205.073 10.5744C204.903 10.6541 204.76 10.7703 204.642 10.9229C204.526 11.0756 204.439 11.2648 204.378 11.4905C204.317 11.7128 204.286 11.9685 204.286 12.2572V12.5261C204.286 12.8148 204.317 13.072 204.378 13.2977C204.439 13.5201 204.529 13.7092 204.647 13.8652C204.768 14.0212 204.914 14.1407 205.083 14.2237C205.256 14.3034 205.45 14.3432 205.666 14.3432C205.883 14.3432 206.075 14.3034 206.245 14.2237C206.414 14.1407 206.555 14.0212 206.67 13.8652C206.789 13.7092 206.878 13.5201 206.939 13.2977C207 13.072 207.031 12.8148 207.031 12.5261ZM213.416 9.49409V10.5296H210.51V9.49409H213.416ZM214.436 9.49409V15.2941H213.087V9.49409H214.436ZM210.145 9.49409H211.499L211.387 12.0531C211.371 12.5145 211.333 12.9227 211.276 13.2778C211.218 13.6296 211.135 13.9333 211.027 14.1889C210.922 14.4445 210.786 14.6535 210.617 14.8161C210.45 14.9788 210.248 15.1 210.008 15.1796C209.768 15.256 209.483 15.2941 209.156 15.2941H208.917L208.907 14.2237L209.09 14.1988C209.232 14.1822 209.354 14.1491 209.455 14.0992C209.556 14.0461 209.642 13.9681 209.714 13.8652C209.785 13.7591 209.842 13.6213 209.886 13.4521C209.93 13.2827 209.965 13.072 209.992 12.8197C210.019 12.5642 210.04 12.2605 210.054 11.9087L210.145 9.49409ZM215.886 14.8211L219.412 9.49409L220.396 9.96705L216.886 15.2941L215.886 14.8211ZM219.412 9.49409H220.76V15.2941H219.412V9.49409ZM215.541 9.49409H216.886V15.2941H215.541V9.49409ZM224.742 9.49409V15.2941H223.398V9.49409H224.742ZM226.689 9.49409V10.5346H221.486V9.49409H226.689ZM227.775 14.8211L231.3 9.49409L232.284 9.96705L228.774 15.2941L227.775 14.8211ZM231.3 9.49409H232.65V15.2941H231.3V9.49409ZM227.43 9.49409H228.774V15.2941H227.43V9.49409ZM235.094 9.49409V15.2941H233.75V9.49409H235.094ZM238.589 9.49409L236.296 13.009H234.825L234.658 11.8241H235.652L237.036 9.49409H238.589ZM237.119 15.2941L235.53 12.775L236.519 11.9783L238.766 15.2941H237.119ZM239.796 14.8211L243.321 9.49409L244.305 9.96705L240.796 15.2941L239.796 14.8211ZM243.321 9.49409H244.67V15.2941H243.321V9.49409ZM239.452 9.49409H240.796V15.2941H239.452V9.49409ZM64.262 25.0172L67.787 19.6901L68.771 20.1631L65.2611 25.4902L64.262 25.0172ZM67.787 19.6901H69.1361V25.4902H67.787V19.6901ZM63.917 19.6901H65.2611V25.4902H63.917V19.6901ZM73.1685 25.0172L76.6935 19.6901L77.6775 20.1631L74.1677 25.4902L73.1685 25.0172ZM76.6935 19.6901H78.0428V25.4902H76.6935V19.6901ZM72.8235 19.6901H74.1677V25.4902H72.8235V19.6901ZM79.7723 19.6901H80.9034L82.496 23.7875L84.0836 19.6901H85.2147L82.9474 25.4902H82.0446L79.7723 19.6901ZM79.1433 19.6901H80.2795L80.4875 24.0663V25.4902H79.1433V19.6901ZM84.7175 19.6901H85.8588V25.4902H84.5096V24.0663L84.7175 19.6901ZM89.2571 23.0707L90.6063 19.6901H92.0467L89.9875 24.1459C89.8657 24.4048 89.7305 24.6454 89.5817 24.8678C89.4329 25.0869 89.2435 25.2628 89.0136 25.3956C88.7871 25.5283 88.4878 25.5947 88.1158 25.5947C88.0347 25.5947 87.9401 25.5914 87.8318 25.5848C87.7236 25.5814 87.6425 25.5764 87.5884 25.5698V24.5393C87.629 24.5426 87.6966 24.5476 87.7912 24.5542C87.886 24.5576 87.9569 24.5592 88.0043 24.5592C88.1801 24.5592 88.3205 24.5277 88.4253 24.4646C88.5301 24.3982 88.6163 24.3119 88.6839 24.2057C88.755 24.0995 88.8208 23.98 88.8817 23.8473L89.2571 23.0707ZM88.0296 19.6901L89.4042 22.5977L89.8201 23.9219L88.9122 24.3302L86.5587 19.6901H88.0296ZM101.136 24.4547L101.039 27.158H99.8019V25.4902H99.1527V24.4547H101.136ZM99.1679 24.4547V25.4902H93.4466V24.4547H99.1679ZM97.0478 19.6901V25.4902H95.7037V19.6901H97.0478ZM100.111 19.6901V25.4902H98.7621V19.6901H100.111ZM93.9893 19.6901V25.4902H92.6452V19.6901H93.9893ZM106.299 24.4547V25.4902H102.911V24.4547H106.299ZM103.363 19.6901V25.4902H102.018V19.6901H103.363ZM105.863 21.9753V23.0109H102.911V21.9753H105.863ZM106.299 19.6901V20.7307H102.911V19.6901H106.299ZM110.707 23.5337H112.056C112.026 23.9385 111.905 24.2937 111.696 24.5991C111.486 24.9044 111.194 25.1433 110.819 25.3159C110.447 25.4852 110.001 25.5698 109.484 25.5698C109.072 25.5698 108.703 25.5051 108.379 25.3757C108.054 25.2462 107.777 25.0604 107.547 24.8181C107.32 24.5724 107.146 24.2771 107.024 23.9319C106.906 23.5867 106.847 23.1968 106.847 22.7619V22.4234C106.847 21.9887 106.91 21.5986 107.035 21.2534C107.159 20.9049 107.337 20.6095 107.568 20.3673C107.797 20.1216 108.072 19.9341 108.394 19.8046C108.718 19.6719 109.082 19.6055 109.484 19.6055C110.019 19.6055 110.469 19.6951 110.833 19.8744C111.202 20.0536 111.488 20.3009 111.69 20.6162C111.897 20.9282 112.021 21.2833 112.061 21.6815H110.717C110.7 21.4824 110.65 21.3049 110.564 21.1489C110.48 20.9929 110.35 20.8701 110.174 20.7805C110.001 20.6909 109.772 20.646 109.484 20.646C109.271 20.646 109.084 20.6843 108.921 20.7605C108.759 20.8335 108.624 20.9448 108.516 21.0941C108.408 21.2402 108.327 21.4244 108.272 21.6468C108.218 21.8658 108.191 22.123 108.191 22.4184V22.7619C108.191 23.054 108.215 23.3113 108.262 23.5337C108.312 23.7527 108.39 23.9369 108.495 24.0862C108.6 24.2356 108.734 24.3484 108.896 24.4248C109.062 24.5011 109.258 24.5393 109.484 24.5393C109.752 24.5393 109.971 24.5028 110.144 24.4298C110.316 24.3567 110.448 24.2456 110.539 24.0962C110.634 23.9435 110.69 23.756 110.707 23.5337ZM115.774 19.6901V25.4902H114.43V19.6901H115.774ZM117.721 19.6901V20.7307H112.517V19.6901H117.721ZM120.968 23.0059H119.329L119.319 22.1197H120.775C120.984 22.1197 121.161 22.0948 121.302 22.045C121.447 21.9919 121.557 21.9155 121.627 21.816C121.698 21.7132 121.733 21.5887 121.733 21.4426C121.733 21.2734 121.698 21.1373 121.627 21.0344C121.557 20.9282 121.45 20.8518 121.307 20.8054C121.166 20.7555 120.988 20.7307 120.775 20.7307H119.806V25.4902H118.462V19.6901H120.684C121.059 19.6901 121.393 19.7234 121.687 19.7898C121.982 19.8528 122.233 19.9508 122.438 20.0835C122.648 20.2129 122.807 20.3789 122.915 20.5813C123.023 20.7805 123.077 21.0161 123.077 21.2883C123.077 21.5239 123.02 21.7447 122.905 21.9504C122.791 22.1562 122.606 22.3238 122.352 22.4533C122.102 22.5827 121.771 22.649 121.358 22.6524L120.968 23.0059ZM120.907 25.4902H118.974L119.477 24.4547H120.907C121.134 24.4547 121.318 24.4248 121.46 24.365C121.601 24.3019 121.706 24.2173 121.774 24.1112C121.845 24.0049 121.881 23.8854 121.881 23.7527C121.881 23.6 121.85 23.4689 121.789 23.3594C121.729 23.2465 121.63 23.1602 121.495 23.1004C121.36 23.0374 121.184 23.0059 120.968 23.0059H119.704L119.71 22.1197H121.272L121.581 22.4732C121.977 22.4565 122.295 22.5163 122.535 22.6524C122.775 22.7852 122.95 22.9578 123.058 23.1702C123.169 23.3826 123.225 23.6017 123.225 23.8273C123.225 24.1128 123.174 24.3601 123.072 24.5692C122.971 24.7749 122.821 24.9476 122.621 25.0869C122.425 25.223 122.183 25.3242 121.896 25.3906C121.608 25.4569 121.279 25.4902 120.907 25.4902ZM128.454 24.4547V25.4902H125.065V24.4547H128.454ZM125.517 19.6901V25.4902H124.173V19.6901H125.517ZM128.018 21.9753V23.0109H125.065V21.9753H128.018ZM128.454 19.6901V20.7307H125.065V19.6901H128.454ZM133.445 22.1197V23.1602H130.123V22.1197H133.445ZM130.539 19.6901V25.4902H129.195V19.6901H130.539ZM134.388 19.6901V25.4902H133.049V19.6901H134.388ZM139.744 22.1197V23.1602H136.422V22.1197H139.744ZM136.838 19.6901V25.4902H135.494V19.6901H136.838ZM140.687 19.6901V25.4902H139.348V19.6901H140.687ZM147.033 22.4632V22.7222C147.033 23.1635 146.967 23.5602 146.835 23.9119C146.707 24.2604 146.522 24.5592 146.282 24.8082C146.042 25.0537 145.757 25.2429 145.425 25.3757C145.094 25.5051 144.727 25.5698 144.324 25.5698C143.922 25.5698 143.555 25.5051 143.224 25.3757C142.893 25.2429 142.605 25.0537 142.362 24.8082C142.118 24.5592 141.931 24.2604 141.799 23.9119C141.667 23.5602 141.6 23.1635 141.6 22.7222V22.4632C141.6 22.0218 141.667 21.6268 141.799 21.2783C141.931 20.9265 142.117 20.6261 142.357 20.3773C142.597 20.1283 142.882 19.9391 143.214 19.8096C143.545 19.6769 143.912 19.6105 144.315 19.6105C144.717 19.6105 145.083 19.6769 145.415 19.8096C145.746 19.9391 146.032 20.1283 146.272 20.3773C146.516 20.6261 146.703 20.9265 146.835 21.2783C146.967 21.6268 147.033 22.0218 147.033 22.4632ZM145.689 22.7222V22.4533C145.689 22.1645 145.657 21.9089 145.592 21.6865C145.532 21.4609 145.442 21.2717 145.323 21.119C145.209 20.9664 145.065 20.8502 144.892 20.7705C144.724 20.6875 144.531 20.646 144.315 20.646C144.098 20.646 143.903 20.6875 143.731 20.7705C143.562 20.8502 143.418 20.9664 143.3 21.119C143.185 21.2717 143.097 21.4609 143.036 21.6865C142.976 21.9089 142.945 22.1645 142.945 22.4533V22.7222C142.945 23.0109 142.976 23.2681 143.036 23.4938C143.097 23.7162 143.187 23.9053 143.305 24.0613C143.427 24.2173 143.572 24.3368 143.741 24.4198C143.914 24.4994 144.108 24.5393 144.324 24.5393C144.541 24.5393 144.733 24.4994 144.903 24.4198C145.072 24.3368 145.214 24.2173 145.329 24.0613C145.447 23.9053 145.536 23.7162 145.598 23.4938C145.659 23.2681 145.689 23.0109 145.689 22.7222ZM150.67 21.8658V22.9063H147.895V21.8658H150.67ZM154.185 22.7222H153.165V22.0799H153.906C154.149 22.0799 154.344 22.05 154.489 21.9903C154.635 21.9272 154.739 21.8425 154.803 21.7364C154.867 21.6268 154.9 21.499 154.9 21.353C154.9 21.2235 154.866 21.1058 154.798 20.9995C154.735 20.8933 154.628 20.8087 154.479 20.7456C154.33 20.6793 154.131 20.646 153.881 20.646C153.722 20.646 153.572 20.6676 153.434 20.7108C153.299 20.7539 153.187 20.8203 153.099 20.9099C153.014 20.9962 152.973 21.1074 152.973 21.2435H151.629C151.629 20.9813 151.686 20.7489 151.801 20.5465C151.915 20.344 152.076 20.1731 152.283 20.0337C152.489 19.8943 152.728 19.7898 152.998 19.72C153.272 19.647 153.569 19.6105 153.89 19.6105C154.256 19.6105 154.584 19.6454 154.875 19.715C155.166 19.7814 155.411 19.881 155.61 20.0138C155.813 20.1465 155.969 20.3125 156.077 20.5116C156.185 20.7074 156.239 20.9315 156.239 21.1838C156.239 21.4061 156.188 21.6119 156.087 21.801C155.985 21.9869 155.842 22.1495 155.656 22.289C155.473 22.425 155.257 22.5313 155.007 22.6077C154.756 22.6839 154.482 22.7222 154.185 22.7222ZM153.165 22.3687H154.185C154.536 22.3687 154.846 22.4068 155.113 22.4832C155.384 22.5562 155.608 22.6607 155.788 22.7968C155.97 22.9329 156.107 23.0922 156.198 23.2747C156.29 23.4573 156.335 23.6581 156.335 23.8772C156.335 24.1527 156.276 24.3966 156.158 24.6089C156.039 24.8181 155.872 24.9939 155.656 25.1367C155.439 25.2794 155.18 25.3873 154.88 25.4603C154.582 25.5333 154.253 25.5698 153.89 25.5698C153.603 25.5698 153.321 25.5399 153.043 25.4802C152.766 25.4172 152.515 25.3176 152.287 25.1816C152.061 25.0454 151.88 24.8678 151.745 24.6488C151.61 24.4264 151.542 24.1593 151.542 23.8473H152.887C152.896 24.0066 152.946 24.1377 153.033 24.2406C153.124 24.3434 153.245 24.4198 153.393 24.4696C153.545 24.5161 153.717 24.5393 153.906 24.5393C154.162 24.5393 154.371 24.5061 154.53 24.4397C154.692 24.3733 154.81 24.2821 154.884 24.1659C154.959 24.0497 154.996 23.9187 154.996 23.7726C154.996 23.6365 154.972 23.5187 154.926 23.4192C154.878 23.3195 154.807 23.2365 154.712 23.1702C154.617 23.1038 154.501 23.0557 154.363 23.0258C154.223 22.9927 154.061 22.976 153.875 22.976H153.165V22.3687ZM161.605 24.4547V25.4902H158.216V24.4547H161.605ZM158.668 19.6901V25.4902H157.324V19.6901H158.668ZM161.169 21.9753V23.0109H158.216V21.9753H161.169ZM161.605 19.6901V20.7307H158.216V19.6901H161.605ZM162.975 19.6901H164.105L165.699 23.7875L167.286 19.6901H168.417L166.149 25.4902H165.247L162.975 19.6901ZM162.345 19.6901H163.482L163.69 24.0663V25.4902H162.345V19.6901ZM167.919 19.6901H169.061V25.4902H167.712V24.0663L167.919 19.6901ZM174.447 24.4547V25.4902H171.06V24.4547H174.447ZM171.51 19.6901V25.4902H170.166V19.6901H171.51ZM174.012 21.9753V23.0109H171.06V21.9753H174.012ZM174.447 19.6901V20.7307H171.06V19.6901H174.447ZM179.312 19.6901V20.7257H176.405V19.6901H179.312ZM180.332 19.6901V25.4902H178.982V19.6901H180.332ZM176.041 19.6901H177.394L177.283 22.2492C177.266 22.7105 177.229 23.1188 177.172 23.4739C177.114 23.8257 177.03 24.1294 176.922 24.3849C176.818 24.6405 176.681 24.8496 176.512 25.0122C176.346 25.1749 176.143 25.2961 175.903 25.3757C175.663 25.4521 175.379 25.4902 175.052 25.4902H174.813L174.802 24.4198L174.985 24.3949C175.127 24.3783 175.249 24.3452 175.351 24.2953C175.452 24.2422 175.538 24.1642 175.609 24.0613C175.68 23.9552 175.737 23.8174 175.782 23.6482C175.825 23.4788 175.861 23.2681 175.888 23.0158C175.915 22.7603 175.936 22.4565 175.949 22.1048L176.041 19.6901ZM183.937 21.6418C184.435 21.6418 184.864 21.7214 185.225 21.8808C185.588 22.04 185.866 22.264 186.062 22.5528C186.259 22.8383 186.356 23.1702 186.356 23.5485C186.356 23.9269 186.259 24.2622 186.062 24.5542C185.866 24.8463 185.588 25.0753 185.225 25.2413C184.864 25.4072 184.435 25.4902 183.937 25.4902H181.437V19.6901H182.781V24.4547H183.937C184.3 24.4547 184.568 24.3634 184.744 24.1808C184.923 23.9949 185.012 23.7809 185.012 23.5386C185.012 23.3793 184.972 23.2349 184.891 23.1054C184.813 22.976 184.694 22.8732 184.535 22.7968C184.377 22.7172 184.177 22.6773 183.937 22.6773H182.299V21.6418H183.937ZM191.459 22.1197V23.1602H188.137V22.1197H191.459ZM188.553 19.6901V25.4902H187.209V19.6901H188.553ZM192.403 19.6901V25.4902H191.064V19.6901H192.403ZM196.009 21.6418C196.506 21.6418 196.935 21.7214 197.298 21.8808C197.659 22.04 197.938 22.264 198.134 22.5528C198.33 22.8383 198.428 23.1702 198.428 23.5485C198.428 23.9269 198.33 24.2622 198.134 24.5542C197.938 24.8463 197.659 25.0753 197.298 25.2413C196.935 25.4072 196.506 25.4902 196.009 25.4902H193.508V19.6901H194.852V24.4547H196.009C196.371 24.4547 196.639 24.3634 196.816 24.1808C196.994 23.9949 197.084 23.7809 197.084 23.5386C197.084 23.3793 197.043 23.2349 196.962 23.1054C196.884 22.976 196.766 22.8732 196.607 22.7968C196.448 22.7172 196.249 22.6773 196.009 22.6773H194.37V21.6418H196.009ZM200.391 19.6901V25.4902H199.047V19.6901H200.391ZM202.592 19.6901L203.718 21.6518L204.865 19.6901H206.422L204.566 22.5678L206.549 25.4902H204.956L203.739 23.4938L202.552 25.4902H200.995L202.907 22.5678L201.04 19.6901H202.592ZM214.999 22.4632V22.7222C214.999 23.1635 214.933 23.5602 214.801 23.9119C214.672 24.2604 214.488 24.5592 214.248 24.8082C214.008 25.0537 213.723 25.2429 213.391 25.3757C213.06 25.5051 212.693 25.5698 212.29 25.5698C211.888 25.5698 211.521 25.5051 211.19 25.3757C210.859 25.2429 210.571 25.0537 210.327 24.8082C210.084 24.5592 209.896 24.2604 209.765 23.9119C209.633 23.5602 209.566 23.1635 209.566 22.7222V22.4632C209.566 22.0218 209.633 21.6268 209.765 21.2783C209.896 20.9265 210.082 20.6261 210.323 20.3773C210.563 20.1283 210.848 19.9391 211.18 19.8096C211.511 19.6769 211.878 19.6105 212.28 19.6105C212.683 19.6105 213.049 19.6769 213.381 19.8096C213.712 19.9391 213.998 20.1283 214.238 20.3773C214.482 20.6261 214.669 20.9265 214.801 21.2783C214.933 21.6268 214.999 22.0218 214.999 22.4632ZM213.655 22.7222V22.4533C213.655 22.1645 213.623 21.9089 213.558 21.6865C213.497 21.4609 213.408 21.2717 213.289 21.119C213.174 20.9664 213.031 20.8502 212.858 20.7705C212.689 20.6875 212.497 20.646 212.28 20.646C212.064 20.646 211.869 20.6875 211.697 20.7705C211.528 20.8502 211.384 20.9664 211.266 21.119C211.151 21.2717 211.063 21.4609 211.002 21.6865C210.941 21.9089 210.911 22.1645 210.911 22.4533V22.7222C210.911 23.0109 210.941 23.2681 211.002 23.4938C211.063 23.7162 211.153 23.9053 211.271 24.0613C211.393 24.2173 211.538 24.3368 211.707 24.4198C211.88 24.4994 212.074 24.5393 212.29 24.5393C212.506 24.5393 212.699 24.4994 212.869 24.4198C213.038 24.3368 213.179 24.2173 213.295 24.0613C213.413 23.9053 213.502 23.7162 213.564 23.4938C213.624 23.2681 213.655 23.0109 213.655 22.7222ZM218.707 19.6901V25.4902H217.362V19.6901H218.707ZM220.654 19.6901V20.7307H215.45V19.6901H220.654ZM225.645 22.1197V23.1602H222.322V22.1197H225.645ZM222.739 19.6901V25.4902H221.395V19.6901H222.739ZM226.589 19.6901V25.4902H225.25V19.6901H226.589ZM232.933 22.4632V22.7222C232.933 23.1635 232.868 23.5602 232.736 23.9119C232.607 24.2604 232.423 24.5592 232.183 24.8082C231.942 25.0537 231.657 25.2429 231.325 25.3757C230.994 25.5051 230.627 25.5698 230.225 25.5698C229.822 25.5698 229.456 25.5051 229.124 25.3757C228.793 25.2429 228.505 25.0537 228.262 24.8082C228.019 24.5592 227.831 24.2604 227.699 23.9119C227.567 23.5602 227.502 23.1635 227.502 22.7222V22.4632C227.502 22.0218 227.567 21.6268 227.699 21.2783C227.831 20.9265 228.017 20.6261 228.257 20.3773C228.497 20.1283 228.783 19.9391 229.114 19.8096C229.445 19.6769 229.813 19.6105 230.215 19.6105C230.617 19.6105 230.985 19.6769 231.316 19.8096C231.647 19.9391 231.933 20.1283 232.173 20.3773C232.416 20.6261 232.604 20.9265 232.736 21.2783C232.868 21.6268 232.933 22.0218 232.933 22.4632ZM231.589 22.7222V22.4533C231.589 22.1645 231.557 21.9089 231.493 21.6865C231.432 21.4609 231.343 21.2717 231.225 21.119C231.109 20.9664 230.966 20.8502 230.794 20.7705C230.624 20.6875 230.431 20.646 230.215 20.646C229.999 20.646 229.804 20.6875 229.631 20.7705C229.463 20.8502 229.318 20.9664 229.2 21.119C229.086 21.2717 228.998 21.4609 228.937 21.6865C228.876 21.9089 228.846 22.1645 228.846 22.4533V22.7222C228.846 23.0109 228.876 23.2681 228.937 23.4938C228.998 23.7162 229.087 23.9053 229.205 24.0613C229.328 24.2173 229.472 24.3368 229.642 24.4198C229.814 24.4994 230.008 24.5393 230.225 24.5393C230.441 24.5393 230.635 24.4994 230.803 24.4198C230.972 24.3368 231.115 24.2173 231.23 24.0613C231.347 23.9053 231.438 23.7162 231.498 23.4938C231.559 23.2681 231.589 23.0109 231.589 22.7222ZM240.374 24.4547V25.4902H234.653V24.4547H240.374ZM238.254 19.6901V25.4902H236.91V19.6901H238.254ZM241.317 19.6901V25.4902H239.969V19.6901H241.317ZM235.196 19.6901V25.4902H233.852V19.6901H235.196ZM246.704 24.4547V25.4902H243.316V24.4547H246.704ZM243.768 19.6901V25.4902H242.423V19.6901H243.768ZM246.268 21.9753V23.0109H243.316V21.9753H246.268ZM246.704 19.6901V20.7307H243.316V19.6901H246.704ZM251.695 22.1197V23.1602H248.372V22.1197H251.695ZM248.789 19.6901V25.4902H247.445V19.6901H248.789ZM252.639 19.6901V25.4902H251.3V19.6901H252.639ZM254.089 25.0172L257.614 19.6901L258.598 20.1631L255.088 25.4902L254.089 25.0172ZM257.614 19.6901H258.964V25.4902H257.614V19.6901ZM253.744 19.6901H255.088V25.4902H253.744V19.6901ZM260.409 25.0172L263.934 19.6901L264.918 20.1631L261.408 25.4902L260.409 25.0172ZM263.934 19.6901H265.283V25.4902H263.934V19.6901ZM260.064 19.6901H261.408V25.4902H260.064V19.6901ZM263.391 17.7884H264.365C264.365 18.0671 264.296 18.3144 264.157 18.5301C264.018 18.7459 263.821 18.9151 263.563 19.038C263.31 19.1575 263.01 19.2173 262.661 19.2173C262.137 19.2173 261.721 19.0844 261.413 18.8189C261.106 18.5534 260.952 18.2099 260.952 17.7884H261.925C261.925 17.9643 261.981 18.1219 262.092 18.2614C262.205 18.4008 262.394 18.4704 262.661 18.4704C262.929 18.4704 263.116 18.4008 263.224 18.2614C263.336 18.1219 263.391 17.9643 263.391 17.7884ZM68.1827 28.8666V29.9021H64.835V28.8666H68.1827ZM65.2611 28.8666V34.6667H63.917V28.8666H65.2611ZM69.1261 28.8666V34.6667H67.7768V28.8666H69.1261ZM72.7171 32.6753H71.0991V31.6348H72.7171C72.9605 31.6348 73.16 31.5999 73.3156 31.5301C73.4711 31.4605 73.5861 31.3659 73.6605 31.2464C73.7348 31.1236 73.772 30.9859 73.772 30.8331C73.772 30.6672 73.7348 30.5145 73.6605 30.3751C73.5861 30.2357 73.4711 30.1229 73.3156 30.0366C73.16 29.9503 72.9605 29.9071 72.7171 29.9071H71.581V34.6667H70.2368V28.8666H72.7171C73.2175 28.8666 73.6453 28.9512 74.0003 29.1205C74.3587 29.2899 74.6326 29.5221 74.822 29.8175C75.0147 30.1096 75.1111 30.4449 75.1111 30.8232C75.1111 31.102 75.057 31.3559 74.9487 31.5849C74.8406 31.8106 74.6833 32.0048 74.477 32.1674C74.2708 32.33 74.0189 32.4561 73.7213 32.5458C73.4272 32.6321 73.0924 32.6753 72.7171 32.6753ZM78.5043 30.2159L76.8305 34.6667H75.4712L77.8297 28.8666H78.7427L78.5043 30.2159ZM80.0969 34.6667L78.4028 30.2109L78.1644 28.8666H79.0876L81.4512 34.6667H80.0969ZM80.0411 32.5109V33.4718H76.7189V32.5109H80.0411ZM84.5299 32.1824H82.8916L82.8815 31.2961H84.3371C84.5469 31.2961 84.7226 31.2713 84.8646 31.2215C85.01 31.1684 85.1183 31.092 85.1892 30.9925C85.2603 30.8896 85.2958 30.7651 85.2958 30.6191C85.2958 30.4499 85.2603 30.3137 85.1892 30.2109C85.1183 30.1046 85.0117 30.0283 84.8697 29.9819C84.7277 29.932 84.5502 29.9071 84.3371 29.9071H83.3684V34.6667H82.0243V28.8666H84.2458C84.6212 28.8666 84.9559 28.8999 85.2501 28.9662C85.5443 29.0292 85.7945 29.1272 86.0008 29.26C86.2104 29.3894 86.3694 29.5554 86.4776 29.7578C86.5857 29.957 86.6399 30.1926 86.6399 30.4648C86.6399 30.7004 86.5824 30.9211 86.4674 31.1269C86.3524 31.3326 86.1682 31.5003 85.9146 31.6298C85.6644 31.7591 85.333 31.8255 84.9205 31.8289L84.5299 32.1824ZM84.4691 34.6667H82.5366L83.0387 33.6311H84.4691C84.6956 33.6311 84.8799 33.6013 85.0219 33.5415C85.1639 33.4784 85.2687 33.3938 85.3363 33.2876C85.4074 33.1814 85.4429 33.0619 85.4429 32.9291C85.4429 32.7765 85.4125 32.6454 85.3516 32.5359C85.2907 32.423 85.1927 32.3367 85.0574 32.2769C84.9222 32.2139 84.7463 32.1824 84.5299 32.1824H83.267L83.272 31.2961H84.8342L85.1436 31.6496C85.5393 31.633 85.8571 31.6928 86.0972 31.8289C86.3373 31.9616 86.5114 32.1343 86.6196 32.3466C86.7312 32.559 86.7869 32.7781 86.7869 33.0038C86.7869 33.2893 86.7363 33.5365 86.6348 33.7456C86.5334 33.9514 86.3829 34.124 86.1834 34.2634C85.9873 34.3995 85.7455 34.5007 85.4581 34.567C85.1706 34.6334 84.841 34.6667 84.4691 34.6667ZM88.0803 34.1937L91.6054 28.8666L92.5895 29.3396L89.0796 34.6667L88.0803 34.1937ZM91.6054 28.8666H92.9546V34.6667H91.6054V28.8666ZM87.7354 28.8666H89.0796V34.6667H87.7354V28.8666ZM96.9361 28.8666V34.6667H95.5921V28.8666H96.9361ZM98.8838 28.8666V29.9071H93.68V28.8666H98.8838ZM103.905 33.6311V34.6667H100.517V33.6311H103.905ZM100.969 28.8666V34.6667H99.6244V28.8666H100.969ZM103.469 31.1518V32.1874H100.517V31.1518H103.469ZM103.905 28.8666V29.9071H100.517V28.8666H103.905ZM108.769 28.8666V29.9021H105.863V28.8666H108.769ZM109.788 28.8666V34.6667H108.44V28.8666H109.788ZM105.498 28.8666H106.852L106.741 31.4256C106.724 31.887 106.687 32.2953 106.629 32.6504C106.571 33.0021 106.488 33.3059 106.38 33.5614C106.275 33.817 106.138 34.026 105.97 34.1887C105.804 34.3514 105.601 34.4725 105.361 34.5522C105.121 34.6285 104.837 34.6667 104.508 34.6667H104.271L104.26 33.5963L104.443 33.5714C104.585 33.5548 104.707 33.5216 104.808 33.4718C104.909 33.4187 104.996 33.3407 105.066 33.2378C105.138 33.1316 105.195 32.9939 105.239 32.8246C105.283 32.6553 105.319 32.4445 105.346 32.1923C105.373 31.9368 105.393 31.633 105.407 31.2813L105.498 28.8666ZM113.395 30.8182C113.893 30.8182 114.322 30.8979 114.683 31.0572C115.046 31.2165 115.324 31.4405 115.52 31.7293C115.717 32.0148 115.814 32.3466 115.814 32.725C115.814 33.1034 115.717 33.4386 115.52 33.7307C115.324 34.0228 115.046 34.2518 114.683 34.4178C114.322 34.5837 113.893 34.6667 113.395 34.6667H110.895V28.8666H112.239V33.6311H113.395C113.756 33.6311 114.026 33.5399 114.201 33.3573C114.381 33.1714 114.47 32.9574 114.47 32.715C114.47 32.5558 114.43 32.4114 114.349 32.2819C114.271 32.1525 114.152 32.0496 113.993 31.9733C113.834 31.8936 113.635 31.8538 113.395 31.8538H111.757V30.8182H113.395ZM120.334 32.7101H121.683C121.652 33.115 121.533 33.4701 121.323 33.7755C121.113 34.0809 120.82 34.3198 120.445 34.4924C120.073 34.6617 119.629 34.7463 119.111 34.7463C118.699 34.7463 118.33 34.6815 118.006 34.5522C117.681 34.4227 117.404 34.2369 117.174 33.9945C116.948 33.7489 116.773 33.4535 116.652 33.1084C116.533 32.7632 116.474 32.3733 116.474 31.9384V31.5999C116.474 31.1651 116.536 30.7751 116.662 30.4299C116.787 30.0814 116.964 29.786 117.194 29.5437C117.424 29.2981 117.7 29.1106 118.021 28.9811C118.346 28.8484 118.709 28.782 119.111 28.782C119.645 28.782 120.095 28.8716 120.461 29.0509C120.829 29.2301 121.115 29.4774 121.318 29.7926C121.524 30.1046 121.647 30.4598 121.687 30.858H120.344C120.327 30.6589 120.276 30.4814 120.192 30.3254C120.107 30.1694 119.977 30.0466 119.801 29.957C119.629 29.8674 119.399 29.8225 119.111 29.8225C118.898 29.8225 118.71 29.8607 118.548 29.937C118.386 30.01 118.251 30.1212 118.142 30.2706C118.034 30.4166 117.953 30.6009 117.899 30.8232C117.845 31.0423 117.818 31.2995 117.818 31.5949V31.9384C117.818 32.2305 117.842 32.4878 117.889 32.7101C117.94 32.9291 118.017 33.1134 118.122 33.2627C118.227 33.412 118.36 33.5249 118.523 33.6013C118.689 33.6775 118.885 33.7158 119.111 33.7158C119.378 33.7158 119.598 33.6793 119.771 33.6063C119.943 33.5332 120.075 33.422 120.167 33.2727C120.261 33.12 120.316 32.9325 120.334 32.7101ZM125.401 28.8666V34.6667H124.057V28.8666H125.401ZM127.349 28.8666V29.9071H122.144V28.8666H127.349ZM130.595 32.1824H128.957L128.946 31.2961H130.402C130.611 31.2961 130.787 31.2713 130.929 31.2215C131.075 31.1684 131.183 31.092 131.253 30.9925C131.325 30.8896 131.36 30.7651 131.36 30.6191C131.36 30.4499 131.325 30.3137 131.253 30.2109C131.183 30.1046 131.077 30.0283 130.934 29.9819C130.792 29.932 130.615 29.9071 130.402 29.9071H129.433V34.6667H128.089V28.8666H130.31C130.686 28.8666 131.021 28.8999 131.315 28.9662C131.609 29.0292 131.859 29.1272 132.066 29.26C132.275 29.3894 132.434 29.5554 132.542 29.7578C132.65 29.957 132.704 30.1926 132.704 30.4648C132.704 30.7004 132.647 30.9211 132.532 31.1269C132.417 31.3326 132.233 31.5003 131.979 31.6298C131.729 31.7591 131.398 31.8255 130.985 31.8289L130.595 32.1824ZM130.533 34.6667H128.601L129.103 33.6311H130.533C130.76 33.6311 130.945 33.6013 131.086 33.5415C131.228 33.4784 131.333 33.3938 131.401 33.2876C131.471 33.1814 131.508 33.0619 131.508 32.9291C131.508 32.7765 131.477 32.6454 131.416 32.5359C131.355 32.423 131.257 32.3367 131.121 32.2769C130.986 32.2139 130.811 32.1824 130.595 32.1824H129.332L129.337 31.2961H130.899L131.208 31.6496C131.603 31.633 131.921 31.6928 132.161 31.8289C132.402 31.9616 132.576 32.1343 132.684 32.3466C132.796 32.559 132.852 32.7781 132.852 33.0038C132.852 33.2893 132.801 33.5365 132.699 33.7456C132.598 33.9514 132.448 34.124 132.247 34.2634C132.052 34.3995 131.81 34.5007 131.522 34.567C131.236 34.6334 130.905 34.6667 130.533 34.6667ZM136.295 30.2159L134.622 34.6667H133.262L135.621 28.8666H136.533L136.295 30.2159ZM137.888 34.6667L136.194 30.2109L135.956 28.8666H136.878L139.242 34.6667H137.888ZM137.832 32.5109V33.4718H134.51V32.5109H137.832ZM143.031 28.8666H144.162L145.754 32.964L147.343 28.8666H148.474L146.206 34.6667H145.304L143.031 28.8666ZM142.402 28.8666H143.539L143.747 33.2428V34.6667H142.402V28.8666ZM147.976 28.8666H149.118V34.6667H147.769V33.2428L147.976 28.8666ZM155.463 31.6396V31.8986C155.463 32.34 155.397 32.7366 155.265 33.0884C155.137 33.4369 154.953 33.7357 154.712 33.9846C154.472 34.2302 154.186 34.4194 153.855 34.5522C153.523 34.6815 153.157 34.7463 152.755 34.7463C152.352 34.7463 151.985 34.6815 151.654 34.5522C151.322 34.4194 151.034 34.2302 150.791 33.9846C150.548 33.7357 150.36 33.4369 150.228 33.0884C150.096 32.7366 150.031 32.34 150.031 31.8986V31.6396C150.031 31.1983 150.096 30.8033 150.228 30.4548C150.36 30.103 150.546 29.8026 150.786 29.5537C151.026 29.3047 151.312 29.1156 151.643 28.9861C151.975 28.8534 152.342 28.787 152.744 28.787C153.146 28.787 153.513 28.8534 153.844 28.9861C154.177 29.1156 154.462 29.3047 154.702 29.5537C154.945 29.8026 155.133 30.103 155.265 30.4548C155.397 30.8033 155.463 31.1983 155.463 31.6396ZM154.119 31.8986V31.6298C154.119 31.341 154.086 31.0854 154.022 30.863C153.962 30.6374 153.872 30.4481 153.754 30.2955C153.639 30.1429 153.495 30.0266 153.323 29.947C153.154 29.864 152.96 29.8225 152.744 29.8225C152.528 29.8225 152.333 29.864 152.16 29.947C151.992 30.0266 151.848 30.1429 151.729 30.2955C151.615 30.4481 151.527 30.6374 151.466 30.863C151.405 31.0854 151.375 31.341 151.375 31.6298V31.8986C151.375 32.1874 151.405 32.4445 151.466 32.6703C151.527 32.8926 151.616 33.0818 151.735 33.2378C151.856 33.3938 152.002 33.5133 152.171 33.5963C152.343 33.6759 152.538 33.7158 152.755 33.7158C152.971 33.7158 153.164 33.6759 153.332 33.5963C153.501 33.5133 153.644 33.3938 153.758 33.2378C153.876 33.0818 153.967 32.8926 154.027 32.6703C154.088 32.4445 154.119 32.1874 154.119 31.8986ZM160.048 32.7101H161.397C161.367 33.115 161.246 33.4701 161.037 33.7755C160.827 34.0809 160.535 34.3198 160.16 34.4924C159.788 34.6617 159.342 34.7463 158.825 34.7463C158.413 34.7463 158.044 34.6815 157.72 34.5522C157.395 34.4227 157.118 34.2369 156.888 33.9945C156.661 33.7489 156.487 33.4535 156.365 33.1084C156.247 32.7632 156.188 32.3733 156.188 31.9384V31.5999C156.188 31.1651 156.251 30.7751 156.376 30.4299C156.5 30.0814 156.678 29.786 156.909 29.5437C157.138 29.2981 157.413 29.1106 157.735 28.9811C158.06 28.8484 158.423 28.782 158.825 28.782C159.36 28.782 159.81 28.8716 160.174 29.0509C160.543 29.2301 160.829 29.4774 161.031 29.7926C161.238 30.1046 161.362 30.4598 161.402 30.858H160.058C160.042 30.6589 159.991 30.4814 159.905 30.3254C159.821 30.1694 159.691 30.0466 159.515 29.957C159.342 29.8674 159.113 29.8225 158.825 29.8225C158.612 29.8225 158.425 29.8607 158.262 29.937C158.1 30.01 157.965 30.1212 157.857 30.2706C157.749 30.4166 157.668 30.6009 157.613 30.8232C157.559 31.0423 157.532 31.2995 157.532 31.5949V31.9384C157.532 32.2305 157.556 32.4878 157.604 32.7101C157.653 32.9291 157.731 33.1134 157.836 33.2627C157.941 33.412 158.075 33.5249 158.237 33.6013C158.403 33.6775 158.599 33.7158 158.825 33.7158C159.093 33.7158 159.312 33.6793 159.485 33.6063C159.657 33.5332 159.789 33.422 159.881 33.2727C159.975 33.12 160.031 32.9325 160.048 32.7101ZM163.579 28.8666V34.6667H162.234V28.8666H163.579ZM167.073 28.8666L164.78 32.3815H163.309L163.142 31.1966H164.136L165.521 28.8666H167.073ZM165.602 34.6667L164.015 32.1475L165.004 31.3509L167.251 34.6667H165.602ZM170.441 32.1824H168.802L168.792 31.2961H170.248C170.457 31.2961 170.634 31.2713 170.775 31.2215C170.92 31.1684 171.028 31.092 171.1 30.9925C171.171 30.8896 171.206 30.7651 171.206 30.6191C171.206 30.4499 171.171 30.3137 171.1 30.2109C171.028 30.1046 170.923 30.0283 170.78 29.9819C170.638 29.932 170.461 29.9071 170.248 29.9071H169.279V34.6667H167.935V28.8666H170.157C170.532 28.8666 170.866 28.8999 171.16 28.9662C171.455 29.0292 171.706 29.1272 171.911 29.26C172.121 29.3894 172.28 29.5554 172.388 29.7578C172.496 29.957 172.55 30.1926 172.55 30.4648C172.55 30.7004 172.493 30.9211 172.378 31.1269C172.264 31.3326 172.079 31.5003 171.825 31.6298C171.575 31.7591 171.244 31.8255 170.831 31.8289L170.441 32.1824ZM170.379 34.6667H168.447L168.95 33.6311H170.379C170.607 33.6311 170.791 33.6013 170.933 33.5415C171.074 33.4784 171.179 33.3938 171.247 33.2876C171.318 33.1814 171.354 33.0619 171.354 32.9291C171.354 32.7765 171.323 32.6454 171.262 32.5359C171.201 32.423 171.103 32.3367 170.968 32.2769C170.833 32.2139 170.657 32.1824 170.441 32.1824H169.177L169.183 31.2961H170.745L171.054 31.6496C171.45 31.633 171.768 31.6928 172.008 31.8289C172.248 31.9616 172.423 32.1343 172.531 32.3466C172.642 32.559 172.698 32.7781 172.698 33.0038C172.698 33.2893 172.647 33.5365 172.545 33.7456C172.444 33.9514 172.294 34.124 172.094 34.2634C171.898 34.3995 171.656 34.5007 171.369 34.567C171.081 34.6334 170.752 34.6667 170.379 34.6667ZM176.146 30.8182C176.644 30.8182 177.073 30.8979 177.435 31.0572C177.797 31.2165 178.075 31.4405 178.272 31.7293C178.468 32.0148 178.566 32.3466 178.566 32.725C178.566 33.1034 178.468 33.4386 178.272 33.7307C178.075 34.0228 177.797 34.2518 177.435 34.4178C177.073 34.5837 176.644 34.6667 176.146 34.6667H173.646V28.8666H174.99V33.6311H176.146C176.509 33.6311 176.777 33.5399 176.954 33.3573C177.132 33.1714 177.222 32.9574 177.222 32.715C177.222 32.5558 177.181 32.4114 177.1 32.2819C177.022 32.1525 176.904 32.0496 176.745 31.9733C176.586 31.8936 176.386 31.8538 176.146 31.8538H174.508V30.8182H176.146ZM180.529 28.8666V34.6667H179.185V28.8666H180.529Z" fill="#FF4253"/>
</g>
</g>
<defs>
<clipPath id="clip0_74_4972">
<rect width="268" height="52" fill="white"/>
</clipPath>
</defs>
</svg>
